/* XPM */
static char *_38bb20735ee4f1e979344a8fc193be4w3edSgxkrfz4oHTl[] = {
/* columns rows colors chars-per-pixel */
"32 32 233 2 ",
"   c None",
".  c #040104",
"X  c #0A0204",
"o  c #0B060D",
"O  c #150808",
"+  c #120A13",
"@  c #190C12",
"#  c #1D161A",
"$  c #1B140E",
"%  c #27140E",
"&  c #24141B",
"*  c #2D1C1A",
"=  c #211618",
"-  c #331D1D",
";  c #391C17",
":  c #2C100A",
">  c #37250E",
",  c #35251A",
"<  c #262013",
"1  c #1E1421",
"2  c #251B24",
"3  c #361D21",
"4  c #2A222A",
"5  c #352424",
"6  c #3A2324",
"7  c #33262B",
"8  c #3D2C2B",
"9  c #3C2627",
"0  c #3C2D32",
"q  c #392D38",
"w  c #481B14",
"e  c #42241C",
"r  c #5B231E",
"t  c #573C1A",
"y  c #57300C",
"u  c #6B3509",
"i  c #623A15",
"p  c #462C25",
"a  c #442D2C",
"s  c #482A25",
"d  c #562C26",
"f  c #4C332C",
"g  c #493027",
"h  c #523226",
"j  c #53352D",
"k  c #59362C",
"l  c #53392E",
"z  c #5A3A2F",
"x  c #583825",
"c  c #453233",
"v  c #4F3B3B",
"b  c #48363A",
"n  c #553B34",
"m  c #5D3C33",
"M  c #533C3A",
"N  c #593D3B",
"B  c #543635",
"V  c #792B28",
"C  c #66352E",
"Z  c #66392A",
"A  c #633D35",
"S  c #723A2F",
"D  c #684D17",
"F  c #79471A",
"G  c #77521F",
"H  c #5B443D",
"J  c #5B4135",
"K  c #53472E",
"L  c #785629",
"P  c #63443A",
"I  c #6B4A3C",
"U  c #674635",
"Y  c #734A3C",
"T  c #794935",
"R  c #785235",
"E  c #73412F",
"W  c #7F6035",
"Q  c #4B3242",
"!  c #5C4443",
"~  c #5C4844",
"^  c #5F484D",
"/  c #634342",
"(  c #634A42",
")  c #6B4D44",
"_  c #664B4A",
"`  c #744D44",
"'  c #6D524D",
"]  c #6B5647",
"[  c #725246",
"{  c #7B5545",
"}  c #73544D",
"|  c #7A544A",
" . c #755A4D",
".. c #7C5B4D",
"X. c #6F5651",
"o. c #755A56",
"O. c #7B5C54",
"+. c #7E5C59",
"@. c #735653",
"#. c #79645C",
"$. c #716753",
"%. c #7C706C",
"&. c #913933",
"*. c #87561C",
"=. c #9B531E",
"-. c #8A621B",
";. c #84582B",
":. c #8E4E3B",
">. c #99692A",
",. c #8C6532",
"<. c #936738",
"1. c #AC7B3E",
"2. c #AA7032",
"3. c #835A4B",
"4. c #875B48",
"5. c #825953",
"6. c #8C624E",
"7. c #836355",
"8. c #83655A",
"9. c #8A645B",
"0. c #846A5B",
"q. c #8B6B5B",
"w. c #8D6952",
"e. c #946C5D",
"r. c #966A55",
"t. c #8E745A",
"y. c #9E745C",
"u. c #8A7249",
"i. c #A77A5D",
"p. c #AA6D4E",
"a. c #8A6B62",
"s. c #856961",
"d. c #926F61",
"f. c #8B756B",
"g. c #9A7464",
"h. c #94766C",
"j. c #957A6D",
"k. c #9C7B6B",
"l. c #967666",
"z. c #827B74",
"x. c #977D71",
"c. c #A57C66",
"v. c #B47C65",
"b. c #A17D76",
"n. c #9E8337",
"m. c #BF8B3A",
"M. c #9E875A",
"N. c #BD8F45",
"B. c #BC975A",
"V. c #B68B52",
"C. c #AFA25B",
"Z. c #998075",
"A. c #8F8175",
"S. c #AB846C",
"D. c #A68768",
"F. c #B68764",
"G. c #B99466",
"H. c #A98774",
"J. c #BB9274",
"K. c #BD9679",
"L. c #B79476",
"P. c #B29079",
"I. c #B5A36A",
"U. c #C99D4A",
"Y. c #C69848",
"T. c #C28243",
"R. c #D9B348",
"E. c #CEA952",
"W. c #EEB749",
"Q. c #E0AB49",
"!. c #C9996D",
"~. c #C59B7D",
"^. c #C69671",
"/. c #C48E6E",
"(. c #DAA967",
"). c #CDA77C",
"_. c #CDBE77",
"`. c #D7AC72",
"'. c #E5BF64",
"]. c #F4C457",
"[. c #D3C47C",
"{. c #E4C97B",
"}. c #E5CA69",
"|. c #A68F86",
" X c #A99583",
".X c #A6958A",
"XX c #B69A88",
"oX c #B2978D",
"OX c #BAA594",
"+X c #BDA384",
"@X c #BBACA5",
"#X c #B9B2AB",
"$X c #ADA3A0",
"%X c #C99E81",
"&X c #CCAA8C",
"*X c #C8A588",
"=X c #D6AC8C",
"-X c #D6A787",
";X c #D9B683",
":X c #C7AB97",
">X c #CAB29C",
",X c #CABA9F",
"<X c #D4B49C",
"1X c #D8B194",
"2X c #E4BA96",
"3X c #C8B6A6",
"4X c #D3BCAA",
"5X c #D8B9A3",
"6X c #CDAEA1",
"7X c #D7CC8B",
"8X c #CBC083",
"9X c #E9C68A",
"0X c #ECC49C",
"qX c #ECD39C",
"wX c #F5EA8D",
"eX c #CDC1B2",
"rX c #D2C6BA",
"tX c #D7C8BA",
"yX c #DDC1AF",
"uX c #E6C8AD",
"iX c #F3D4AF",
"pX c #E4CBB7",
"aX c #E2D4BC",
"sX c #F6D7B8",
"dX c #FEE7AC",
"fX c #DBD0C5",
"gX c #DBD4CE",
"hX c #D0CBC3",
"jX c #E9DECC",
"kX c #ECE5DC",
"lX c #FAF2D0",
"zX c #FEFDED",
"xX c #F9F5E8",
/* pixels */
"                            {.}.}.R.                            ",
"                    }.!.OXgXtXeX3X3X>X XR M.                    ",
"                7X$.hXfXtXoX,XOXOX4X4X.XtX<Xt.$.                ",
"            dXG.#.kXkXd.fXOX:X5XpX,X@XoXeXpX<XH.9               ",
"          dXt.3XgX%.#.kXP fX>X%X4X>X XoXfXuXuX&XM.g ,           ",
"        dXt.hXgXa.#X#XA.3X#.pX5X3X>Xl. X%.&X5X<XXXt.5 $         ",
"      lXD.rXA.tX Xx.|.0.yX.Xa pX5X:XP.#.F.K.*X*XXXH. ., <       ",
"      aX#X.Xj.) OXOX~ gXH  .5X5X2XaX0.).=X).L.J.S.y.i.[ ,       ",
"    zXD.%XW.W.m.>.F G >.1.*.>.u.<XS.0X2X=X~.~.K.y.R r.r.C ;     ",
"    jX.X].-.D D G 2.>.G D > L a.D.iX0X).i.{ | 4X<Xw.A &.V r     ",
"  zX7.wXW.D.t.H.K.Q.Y.L L N.j.7.d.=Xr.h @ + f j XX:X4.C V V Z   ",
"  zX .R.L.{ b.` H.B.U.,.R.V.g.b.w.h & a * Q S.e.j ~.i.S &.| z.  ",
"  lXoXW | 0.a.j.j.I.Y.1.>.w.k.x.] , q.] / F.F.5.j i.h w  .z.q   ",
"dX3X0.U | h.s.0.o.[.N.>.L l.k.k.l B J.4.G.^.5.& U x . h z.q 9 P ",
"qXZ.l [ | f.U ` #.C.Y.1.R 0.d.l.d./ ).D.{ - % k k . 9 #.q 4.6.Y ",
"9X7.$X[ P x.8.P 0.7XY.,.D.#.d.q.q.5.k * 5 n ! X.o c e.6 I w.4.Y ",
";X..o.} XXf |.@.H [.Y.t ] 9.q.X.8.8.+.+.X.Q #.= J S.2.S C 4.R I ",
"/.w.6XN j oXf m J [.Y.> p g.H b O.o.o.o.' _ 0.a F.!./.F.4.C T A ",
"L V.B 5.A n |.I ( qXB.> P | v f.7 } X.' ' +Xj 2X2X^.k.q.r.S C C ",
"  (._ P H h.l m c 7XE.> [ ) H f k.( ' ' K.h 1X=X~.g.' H H { r   ",
"  T.A | C h m j.l 7X'.K J  .q...8 ..N ) D.O *XF.k._ c 2 5 f d   ",
"  u ` Q 5.C | e Z.[.R.$.H d.N ) q...@ ;Xe O J.9.' 8 # + o $ Z   ",
"    =.5.j B s q.s E.N.n.a p 5._ ! ) $ 9XB X J.} c & o . . %     ",
"    : 4.A ) 3.e a.D i -.m O.a.X._ * qX-XN + P.I 7 + . . . %     ",
"      *.d s C d s T u y ;.( ! ! b *XsX+.2 + *X` a = . . X       ",
"      O 2.r 7 d k s f j z n M b /.iX8.2 + . :X5.N a . X O       ",
"        O C 3 d s M a c c c M -X2XO.1 q ! 1 6Xa./ 5 . X         ",
"          % A 3 3 3 s 9 8 { 1X%XQ # 4 ~ ! c 5X5.I @ X           ",
"            > U 3 3 3 ` /.-Xc.0 2 4 0 v 0 oXP.O.B               ",
"                n 7 g.-X-Xv.a 4 7 7 0 8 ^ b.5.`                 ",
"                    /.p.v.&.1 4 4 7 7 b a.8.                    ",
"                          ; 1 4 4 4 0                           "
};
