/* XPM */
static char *_da702443e6349def377b8ab111b8680VOSuVJ9CBMTE4IPw[] = {
/* columns rows colors chars-per-pixel */
"64 64 256 2 ",
"   c None",
".  c #030103",
"X  c #0B0405",
"o  c #0A040B",
"O  c #0A060A",
"+  c #150809",
"@  c #0B0515",
"#  c #130B13",
"$  c #180C17",
"%  c #1C131C",
"&  c #1B1316",
"*  c #1A100D",
"=  c #210C09",
"-  c #27160B",
";  c #36160A",
":  c #230C14",
">  c #281718",
",  c #331B13",
"<  c #3A1D15",
"1  c #341D1D",
"2  c #3A1D1A",
"3  c #350F06",
"4  c #2C2419",
"5  c #3D221B",
"6  c #382318",
"7  c #3A2A10",
"8  c #1D1522",
"9  c #1A0E25",
"0  c #2B1D24",
"q  c #251C27",
"w  c #341D24",
"e  c #261E34",
"r  c #2C232A",
"t  c #2D2423",
"y  c #3B2423",
"u  c #32252C",
"i  c #3B292C",
"p  c #382726",
"a  c #3A2B34",
"s  c #322D2F",
"d  c #491B19",
"f  c #591E17",
"g  c #562907",
"h  c #43251D",
"j  c #48271A",
"k  c #583717",
"l  c #523013",
"z  c #683608",
"x  c #653B14",
"c  c #793A0A",
"v  c #4B2C24",
"b  c #432C2C",
"n  c #4A2D2B",
"m  c #452824",
"M  c #542A25",
"N  c #4C322B",
"B  c #4B3327",
"V  c #54332B",
"C  c #5A352C",
"Z  c #5C3A2D",
"A  c #563628",
"S  c #452C34",
"D  c #443234",
"F  c #4A3434",
"G  c #4E3B3B",
"H  c #4A3639",
"J  c #543B33",
"K  c #5B3B33",
"L  c #533C3C",
"P  c #593837",
"I  c #592D31",
"U  c #612B27",
"Y  c #792927",
"T  c #66392B",
"R  c #643E34",
"E  c #773831",
"W  c #4A1B23",
"Q  c #5C4217",
"!  c #794A18",
"~  c #6F4815",
"^  c #594339",
"/  c #594322",
"(  c #674627",
")  c #64443C",
"_  c #6A4639",
"`  c #734B3A",
"'  c #774A39",
"]  c #795539",
"[  c #72542F",
"{  c #7A622E",
"}  c #553C42",
"|  c #473A4A",
" . c #603D40",
".. c #5B4443",
"X. c #574544",
"o. c #595050",
"O. c #644B44",
"+. c #6B4B44",
"@. c #644C4A",
"#. c #674946",
"$. c #754D44",
"%. c #6D534C",
"&. c #6C5649",
"*. c #745345",
"=. c #72544C",
"-. c #7B544B",
";. c #7B5B4D",
":. c #7A5447",
">. c #695A53",
",. c #755A54",
"<. c #7B5C53",
"1. c #765857",
"2. c #654B50",
"3. c #7C6357",
"4. c #7F6245",
"5. c #776C66",
"6. c #2A1C49",
"7. c #8C3730",
"8. c #822F1F",
"9. c #8A5719",
"0. c #925114",
"q. c #835826",
"w. c #885A39",
"e. c #8F4F31",
"r. c #986828",
"t. c #886538",
"y. c #986D34",
"u. c #A86927",
"i. c #A77639",
"p. c #B0742F",
"a. c #A0671B",
"s. c #835B45",
"d. c #865A49",
"f. c #835E53",
"g. c #855C58",
"h. c #8D5145",
"j. c #88644A",
"k. c #95684C",
"l. c #846354",
"z. c #84645A",
"x. c #8C6B5D",
"c. c #896657",
"v. c #926D5D",
"b. c #966A57",
"n. c #9B735B",
"m. c #8E734C",
"M. c #A5785A",
"N. c #AF734D",
"B. c #8D6D62",
"V. c #856965",
"C. c #936D65",
"Z. c #8B7767",
"A. c #947264",
"S. c #9C7A6C",
"D. c #987667",
"F. c #9A7C72",
"G. c #877974",
"H. c #A67B67",
"J. c #AD7D6F",
"K. c #825D62",
"L. c #C67D38",
"P. c #BB8A38",
"I. c #B38931",
"U. c #CA9237",
"Y. c #D5A837",
"T. c #F2B334",
"R. c #BB8957",
"E. c #B08D53",
"W. c #978578",
"Q. c #8D8378",
"!. c #AA836C",
"~. c #AA8568",
"^. c #B68968",
"/. c #A88877",
"(. c #B68C74",
"). c #BC9474",
"_. c #B7967A",
"`. c #AB917B",
"'. c #BBA671",
"]. c #908356",
"[. c #C59949",
"{. c #C99051",
"}. c #CEA354",
"|. c #D5A952",
" X c #CEA34E",
".X c #EFB74D",
"XX c #C49A7B",
"oX c #C99877",
"OX c #C9926C",
"+X c #C8A47C",
"@X c #D5A57A",
"#X c #D2B26E",
"$X c #E9B274",
"%X c #FAD659",
"&X c #F2C75A",
"*X c #F6D16E",
"=X c #F7E674",
"-X c #EDD359",
";X c #FEC83F",
":X c #9A9387",
">X c #958985",
",X c #AA8D84",
"<X c #A99587",
"1X c #B89A88",
"2X c #BA9D94",
"3X c #AB978E",
"4X c #B7A28B",
"5X c #BBA798",
"6X c #B6A8A1",
"7X c #BBB5AC",
"8X c #C79D83",
"9X c #C99E92",
"0X c #C8A587",
"qX c #D5A889",
"wX c #C8AB97",
"eX c #D1AB94",
"rX c #C8B29C",
"tX c #D8B498",
"yX c #D8B28B",
"uX c #E5B998",
"iX c #E4B188",
"pX c #CAB7A8",
"aX c #DCBBA4",
"sX c #D4BCAA",
"dX c #D5B8A6",
"fX c #CBB6AD",
"gX c #E3BAA1",
"hX c #EAC59B",
"jX c #F6D38D",
"kX c #FDF48F",
"lX c #D7C6B7",
"zX c #D5C5B2",
"xX c #E9C5A7",
"cX c #F5D5AA",
"vX c #E6CAB4",
"bX c #F2D3AF",
"nX c #FEE9AA",
"mX c #FFFBAA",
"MX c #FCE8BB",
"NX c #FFFBB1",
"BX c #DCCD96",
"VX c #D7CDC3",
"CX c #DBD3C9",
"ZX c #D8D0CB",
"AX c #E7D6C8",
"SX c #E4DBD2",
"DX c #ECD7CF",
"FX c #FAE8C7",
"GX c #FFF3C9",
"HX c #EAE2D9",
"JX c #F5E6D7",
"KX c #FFF8D8",
"LX c #F4EDE7",
"PX c #FDFBEA",
"IX c #FEFDF3",
"UX c #EBE6E2",
/* pixels */
"                                                                                                                                ",
"                                                *X*X=X%XY.I.9.! ! ! k Q 9.U..X.X                                                ",
"                                          =X*X&Xy.n.VXSXSXCXCXVXCXlXzXpXrX5X/.A 4 { *X                                          ",
"                                      =X&X! V.VXSXZXlXlXlXzX5X<X7XsXzX7X5X4X3X4X5X'.^ p 4X                                      ",
"                                  nX|.l :XHXHXCXCXzX3XzXrX/.1X~.`.4XlXdXzX5X3XQ.pX5XrX4X3.t Z.                                  ",
"                              MX*X/ >.HXSX5.zXzXlXfXzXzXvXzX4X`.rXlXdXpX5X5X7XW.6X7XvXtXrX'.) 4 ].                              ",
"                            GXE.O 7XIXIXLXlX] CXHXVX`.5XfXzXvXAXlXzXrXpX5X5X4XW.6XzXvXxXtX0X).j.4 B                             ",
"                        nXMXm.1XVX>.5.HXLXHX5Xm pXSX5XG.4XwXeX0XtXzXdX5X4XrX<X<X5XlXvXvXxXrX4X/.x.m O {                         ",
"                      nXNX[ 5XHXLXLX3X& o.SXHX7X, 4XCXlX0XeXlXsXzXdXdX5XW.wX<X<X5XSXlXbXxXzX0X_.~.l.B X s                       ",
"                    nXMX] 5XG.VX>.IXZXB l 5.PXCXW.h pXlXrX4X0XdXrXzXsX4XW.4X4XW.7XlXtXxXxXzXtX0X_.].&.b + 4                     ",
"                  nXMX{ 7XZX4X5XLX5XB HXHXF ^ VXlXl.^ zXaXtXgXaXdXpXzX_.Z.5X5XW.ZXV.0XtXxXxXaXeX0X/.Z._ p + 4                   ",
"                nXGXt.7XLXo.3XLX^ j 6XLXIX>X7 5.zXpXD., pXAXgXaXdXdXzX_.[ 5X4XzX>X[ ).eXaXtXtXeXwX_.~.m.^ 4 . 4                 ",
"              MXGX].:XzX:X7XzXLXd.` >XIXHXZ.( 4 zXlXpX4 5 G.vXdXdXdXsX`./ rX3X5._ M.(.qX0XeXeXeX0X1X_.S.4.^ - X s               ",
"              KX0X3XIX3X:X) LX3.2XHXA.C =.fXVXW.<X<XlXsXu t AXdXdXdXxX`.3.Q.X.j.^.OX).XXXX0X0X4X1X_._.~.D.*.J 6 +               ",
"            KXAX3.ZXHX6X_ 3.5XB 3XLXVXB.z.5.ZXLX; - <.lXsXaXzXdXtXgXJX0X>.^ ^.@XqX0X8XXX).)._._.(.~.!.~.H.b.*.K 7 *             ",
"          PXPX) ZXQ.Q.V l.JX_ k :.AXDXc.&...UX7X^ SX+ j.lXxXtXqX|.AXJXk.n.@XiXuXyXqXqXXX).(.(.^.~.S.b.s.H.!.b.] A - 4           ",
"          IXrX<XfXLXjX.XT.L.a.9.~ z z z ! m.oX( +XvXl ! R.u.p.p.rXFXt.^.iXhXuXuXtXqX8X)._.(.(.!.n.b.j.R h.1XJ.h.R W +           ",
"        IXIXm.F.] T.T.T.%X%X-X;XY.I.p.0.0.9.r.u.p.r.a.0.a.c - tXtX_.H.xXcXxXhXhXyXqXoXXXXX8X8X(.M.j.j.:.3 (.b.h.E U d 2         ",
"        IXpX<XHXT.;X%XI.! Q Q Q ~ ! ! q.! q.r.r.r.~ l = + g D.tX0XJ uXbXcXxXuXyXoX(.H.H.H._.xXvX8Xn.w.l.R h.e.' E E M d         ",
"      IXIXm.Q.P.%X|.g l g Q Q ~ 0.9.I.U.I.r.{ ~ Q l 7 4 I.wXO yXXXF bXcXhXiXoX~.k.' P m m _ (.DXJXaXH.d.b.: e.Y Y Y Y f k       ",
"      IXAX*.vX=X%X&Xr.(.DXM wXsXM.p.U.&X|.i.t.[ ( Q ~ &X+XpX# 8X_.P xXuXoXR.s.( h : # @ o o > ` qXJXxXH.b.C E 7.Y Y 8.f d       ",
"    PXIX<X=.mX=X.X{.d.,Xn.' dXD.sX2XU.&X.XN.q.{ { a.=XI.V.} B.(.(.N XXE.s.R 2 : # . o # N f.$.w A eXvX9XH.d.h 7.7.8.8.Y f m.    ",
"    PXIXc.<.=XY.{.H.f.d.:.c.*.C 4XaX` %X-XN.t.q.u.=XY.l.A.H.!.!.!.v j.A 2 > $ @ . 1 q | C.J.J. .* k.eXqXJ.b.1 e.7.7.E ) `.>.    ",
"    PXJX` ].-XI.rXD.I =.wXc.f.;.d.+.v kX&Xi.t.u.%X|.E.S.D.S.F.J._.j d = : o ^ +.v e S v.(.(.(.d.$ ] )._.M.j.w 7.7.7.o.:X>X5.    ",
"  GXIXrX3.'.Y.t.3X` d.P ,Xv 5XwX`.w 2 =X.Xm.y.U.p.0./ W.H.S.F.F.!.v + # %.`.wX) 9 } n.^.R.^.(.-.$ ] ^.~.d.( : Y 7.o.:XQ.o.s 5.  ",
"  GXPX/.W.BXr.m.( f.2X/.`.v V B.#.sX3X=X|.i.i.I.0.E.3.S.S.S.S.F.;.6 * g.M.n.) & _ M.^.J.^.(.D.w 0 w.k.j.m * + g X.:X>Xo.e 9 >.  ",
"  GXKXz.x.q.{ *.f.=.fXlX,X=.1Xj b sXSXkX|.y.P.9.9._ ^ !.F.S.S.F._ + b ^ ~.M.Z [ M.^.OXoXoXM.m @ C ' k.C X . + B Q.<Xo.e % # ^   ",
"  GXKX&.6Xn.~ -.,XZ A =.V sXUXA C K ) =X|.i.I.! 9.3.W.S.S.A.S.S.4.N S ) OXqXM.^.XX@XoX^.s.1 @ h T ' _ X . . h x.W.| e S ) K _   ",
"  GXKX..Q.Z.s.-.H._ T *._ O.*.R 2X_ h kX|.p.}.! ! <X<XA.D.A.Z.D.H.g.S *.).uXyX0XXXM.w.m o X 5 Z ^ :.X . . 2 f.Z.| e C k.b.s.`   ",
"  GXvXL O.) 6Xd.d.#.3XVXC C C 5X3Xj 7 kX XI.$X9.! * v D.D.B.A.Z.B.C. .-.yX~.b.*.v > o . * v _ ^ *.X . . 1 l.B.^ q C f.v.b.:.]   ",
"  GXvXN 6X1.=.f.d 5XV.lX5 v D.3.B *._ kX XE.R.! E.<X) A.A.v.B.x.x.C.l.#.j.5 + . O O , ) =.#.^ V.+ . . i B.A.^ : C d.b.b.k.s.$.  ",
"  GXBXH >XVX#.V ) h :.v <X2Xj , G.pX1XmX}.U.y.Q /.<X;.A.B.x.B.x.x.x.x.l.^ 5 y A _ _ ) L H F V.i . . S C.J.d.j : R ;.j.l.d.:.'   ",
"  FXtXH 1.>Xm 2XfXf., h SXzXh J v J j.kX XU.[ 7 x.+ *.v.v.v.B.B.z.z.z.z.z.1.g.V.1.%.} | F <.z.. O H H.(.H.e.T W W ' s.d.s.' `   ",
"  MXtXN  .M m ,X9X) R K S.m z.5X5X^ { mX X[./ 7 7X+ x.x.x.x.L } z.3.3.<.3.3.<.1.%.@.X.H X.rX- X H H.(.N.i.i.u.e.U M $.h.:.' _   ",
"  cXhXn W.fX+.M d J 6XpX< j A ) 1X5 ].mX X[.7 7 ; A n.n.v.J % } %.<.<.<.,.3.1.1.>.@.X.^ fX+.. y n.M.{.OXOXR.{.R.b.Y U ' ' ' (   ",
"  $XuXR wX1.3X_ m C.> 2X3 N ) ) h h ].mX XI.7 - - :.D.D.=.% o.t 3.,.<.,.,.,.,.,.%.&.X.<X_.X 1 n.@X$XqXoXOX^.J.~.H.k.M T ' _ R   ",
"  {.jXK S 2 1 g.#.I /.J 1.<X-.F.5 B +XmX X[.7 - , ^ !.c.: t %.2XW.> &.,.>.,.,.%.%.@.Z.wXj , OXhXuXiX@X).(.H.n.n.n.M.h.f T _ T   ",
"  N.$X` 2./.F.*._ C - 2 DX2X< , Z.^ BXNX X[.7 * <.R :., =.G.<X^ + # O.=.,.%.%.%.&.3.tX] 7 iXgXgXuXqXXX/.D.x.l.3.l.j.k.f U T R   ",
"  ! $Xj.2.J.fXC +.w z.n K z.< 2 5 ` '.mX|.P.7 - sXv 5 ) F.&.* y 5./.S.) %.%.%.%.,.yX~.j M.xXuXtXqXXX/.C.z.,.+.#.#.%.l.' d T Z   ",
"  < {.{.L a O.+.V lX,X1Xh < ,XF.A 4 ~.mX#XE.Q - ) v B.;.- = B.*.F.x.& =.+.%.2.%.~.+XA y eXuXqX8XXX(.H.<.%.^ H F H P _ w.f U C   ",
"    u.OXI $.-.-.+.C g.C C - AXwXp B '.mX*X[.[ 8 B v rX+ > 1X$.A.L t <.;.&.F ..;.hXj., m tXqX(.(./.S.z.%.G a s u p p N ' f U     ",
"    0.{.' $.-.a P T j C _ $.5 A , W.'.mXjX X].4 O.;.J * c.!.x.p p ;.;.;.+.* u @X+Xv + B yX).H.H.A.c.%.G i t > % % > 0 V M T     ",
"    g u.h. .} 6.E I h O.C b.m - z.sXE.kX=XE.#X* J p c.:.f.) p #.v.x.l.;.^ . 7 cXs.> X N qX!.n.b.l.*.L i 0 & # # # # & 2 M (     ",
"      z u.P | h.1X;.d $.b.2 N $.7 =.y.kX*XE.=X4 ^ F./.x.j N l.C.p b ;.;.& . ^.iX_ : X m +XJ.c.<.=.L a r & # # @ O O O - T       ",
"      3 8.k.R J.p J C C.C < W./.j ; r.=X%XN.|.( 6 W.&.2 +.g.g.> #.w l.^ . - jX@X$.: . y 0X~.f.%.} S u % # o O . . . O < l       ",
"        g L.h.E F I v v N C V ) < h R.%X[.! I.I.> , m f.-.o.S G 2.B.<.> . ^.jXyXb.w o 5 '.H.;...H u > $ # o . . . X o <         ",
"        3 Y N.S W P H.< R g.5 2 ;.`.( ! Q Q Q Y.1 N 1.1.1.B.+.z.1.1...X T cXjXoXg.S $ 0 0X~.=.P a t % # o . . . . o = <         ",
"          3 u.7.M g.).+ E c.v h K %.l z z z Q ! t.%.%.1.c.=.@.@.@.#.1 - cXnXiXH.#.w $ w 0X!.<.P i q & # . . . . . o =           ",
"          + g {.I I 1 m U M C V V h m c k k k g u.O.O.O...O...X.o.H = hXKXbX8X1.a > $ r wX_.f.P b u > # . . . . . + =           ",
"            = 0.k.d M E E P v d K m n M.0.c z g ~ a.X...X.X.X.X.^ - $XKXFX9Xg.S q $ @ % tX8Xz.P b b p $ . . . . X +             ",
"              3 L.I T E % b n d d v 5 5 = M ~ 0.0.0.q.L L } } } 5 $XGXbX9XK.D 8 # o o # yX0Xv.#.F P P > . . . X X               ",
"              . f L.U o w S ) m R $.b m N v b D V H J H G } G I $XFXcX9XK.S % & $ # . # rX0XC.=.R #.R > . . X X +               ",
"                X x e.+ > w w.n R R : %.> b n S F F F D G H I iXbXxXqX1.e 8 & D ^ D $ # eXeXH.1.#.O.L : . . X X                 ",
"                  X w.C > h 2 w m > > 3.H m b S b b D H S ] gXbXuXoX#.q $ % a o.2.@.a u dXdXJ.1. .O.J X . X X                   ",
"                    X y.C 1 > 2 2 y y m m p b w i b S n M.cXcXiX(.} q $ 8 r X.@.@.} a X.aX9XF.-.+.#.b . . X                     ",
"                      . t.C 1 w 1 y 5 w y y w i i S ' qXgXuXoXM.H % $ 9 r a X.....} q 3XdX9XC.-.#.R > X X                       ",
"                        . ( j.1 w 2 1 1 w w w I h.^.uXuXqX(.k.i % % q r u D X.X.G a } eXwX/.B.-.) P + O                         ",
"                            7 k.w w w 1 w y h.OXqXiXiXOXH.-.0 & % q r u s D H D S e ,X2X,XC.-.$.R 1                             ",
"                              * j.t 9 w P n.9XgXuXqXOXH.h.w 8 8 q r u u a D D a r 1.,X,XS.g.-.+.m                               ",
"                                  Z C V H.qXqXqX8XOXOXh.y 9 8 r r u u u s i i p } C.H.C.K.d.$.                                  ",
"                                      k.qX9X^.N.R.OXN.Y q q r r r u r s i i 0 a V.V.V.g.g.                                      ",
"                                          N.h.h.N.N.7.w 8 q q r r r u u u t a 3.V.V.g.                                          ",
"                                                7.e.f w 8 q r r r r r r r | 1.V.                                                ",
"                                                                                                                                "
};
