/* XPM */
static char *_805362d49504f84dadd1a460610da2bwMRXwdu3RfuvK6FC[] = {
/* columns rows colors chars-per-pixel */
"16 16 193 2 ",
"   c None",
".  c #010001",
"X  c #050207",
"o  c #090105",
"O  c #0F0509",
"+  c #1C160F",
"@  c #261614",
"#  c #24171A",
"$  c #23171E",
"%  c #261919",
"&  c #23181D",
"*  c #241D27",
"=  c #2C1C21",
"-  c #2B1E24",
";  c #292029",
":  c #2D242B",
">  c #3A2326",
",  c #3E2725",
"<  c #34282D",
"1  c #54351F",
"2  c #643611",
"3  c #402621",
"4  c #422B2A",
"5  c #412A2D",
"6  c #422B2C",
"7  c #5C2421",
"8  c #512D29",
"9  c #4F342C",
"0  c #50362D",
"q  c #56352C",
"w  c #52382F",
"e  c #54392F",
"r  c #423134",
"t  c #493230",
"y  c #4C3733",
"u  c #4D3635",
"i  c #47373C",
"p  c #523736",
"a  c #553C33",
"s  c #523935",
"d  c #5B3932",
"f  c #5C3831",
"g  c #5D3B34",
"h  c #68372B",
"j  c #63382A",
"k  c #7C322E",
"l  c #773F31",
"z  c #564136",
"x  c #6F482D",
"c  c #765128",
"v  c #6F4636",
"b  c #6F463A",
"n  c #63483F",
"m  c #714134",
"M  c #7A523E",
"N  c #7B612F",
"B  c #574141",
"V  c #5C4540",
"C  c #5F4641",
"Z  c #5A4646",
"A  c #6E4741",
"S  c #624C44",
"D  c #654E47",
"F  c #694A40",
"G  c #694C41",
"H  c #6F4C41",
"J  c #6F4F43",
"K  c #684D44",
"L  c #6A4C44",
"P  c #654E4C",
"I  c #694F48",
"U  c #6E5045",
"Y  c #6C5047",
"T  c #6E524B",
"R  c #6E534D",
"E  c #735343",
"W  c #7B5241",
"Q  c #725549",
"!  c #71554A",
"~  c #72524C",
"^  c #70524F",
"/  c #76584D",
"(  c #7C594B",
")  c #7D5B4F",
"_  c #755650",
"`  c #785C53",
"'  c #7C5E51",
"]  c #795D57",
"[  c #7C5F57",
"{  c #705758",
"}  c #7E6157",
"|  c #6E6564",
" . c #824B34",
".. c #815C35",
"X. c #85662F",
"o. c #916225",
"O. c #916A29",
"+. c #956D2A",
"@. c #8F6532",
"#. c #A87D3D",
"$. c #815947",
"%. c #8B594C",
"&. c #8D6846",
"*. c #83624F",
"=. c #84624F",
"-. c #926B45",
";. c #937543",
":. c #856653",
">. c #886055",
",. c #866359",
"<. c #82675E",
"1. c #85675C",
"2. c #88635A",
"3. c #936F5D",
"4. c #8E715D",
"5. c #90725D",
"6. c #93715E",
"7. c #98735C",
"8. c #9B735C",
"9. c #A46F47",
"0. c #A17851",
"q. c #8E6C60",
"w. c #8D6E68",
"e. c #877365",
"r. c #907062",
"t. c #907367",
"y. c #9C7A6B",
"u. c #9C7E68",
"i. c #9C7B6C",
"p. c #937C71",
"a. c #A57A61",
"s. c #AA7B61",
"d. c #B3843B",
"f. c #AE8A42",
"g. c #A2894E",
"h. c #B18540",
"j. c #A1845D",
"k. c #B8925C",
"l. c #9B8661",
"z. c #9F8B64",
"x. c #A28D63",
"c. c #A18A67",
"v. c #A1866B",
"b. c #AF866B",
"n. c #B08F6B",
"m. c #B1886F",
"M. c #A3916D",
"N. c #A78671",
"B. c #AC8A71",
"V. c #AA8E75",
"C. c #B48C74",
"Z. c #B48E77",
"A. c #B2917B",
"S. c #BF987A",
"D. c #C5915A",
"F. c #CDA34E",
"G. c #C29678",
"H. c #C1987C",
"J. c #C19B7E",
"K. c #C8B376",
"L. c #A38F80",
"P. c #AB9583",
"I. c #A2918A",
"U. c #AF978E",
"Y. c #A7998E",
"T. c #B69384",
"R. c #BD9D82",
"E. c #A79A91",
"W. c #B4A087",
"Q. c #B1A690",
"!. c #B7A395",
"~. c #BEA494",
"^. c #BFA796",
"/. c #B5A99B",
"(. c #BAAE9E",
"). c #D29D80",
"_. c #C3A484",
"`. c #D6B883",
"'. c #C6AD98",
"]. c #C1AF9E",
"[. c #C8AF9D",
"{. c #C6B190",
"}. c #CFB399",
"|. c #CAB89B",
" X c #DAB99E",
".X c #E4BB94",
"XX c #C0B1A4",
"oX c #CDB8A4",
"OX c #D6B7A0",
"+X c #D1BCAA",
"@X c #CDBEB1",
"#X c #DBC793",
"$X c #F2EBCD",
/* pixels */
"            `.{.W.j.            ",
"        Q.XX@X'.oX!.+XV.        ",
"    #X(.E.Y.L.OX[.P.~. X4.+     ",
"    /.p.U.I.e.~.}.u.G.J.B.E     ",
"  ].F.+.o.@.c -.R..Xb.Z.8.%.7   ",
"  K.0.3.k.#.f.i.=.0 = ) A.b k   ",
"$X;.q.t.c.d.&.y.0 7.a.( M @ | y ",
"|.<.1.U z.h.:.r.,.:.0 t % J J W ",
"_.~ [ Q l.X.~ I [ ] P S s.9.m b ",
"D._ G T M.N n D z T 5.G.H.' $.j ",
"  A f G x.g.S / I a a m.R & %   ",
"   .f f ..+.s _ S n.5 3.- X O   ",
"    h 8 q 2 x z v.w.$ N.4 .     ",
"    q 3 , 5 u Z.] < Z T.s o     ",
"        > >.).s - r { 2.        ",
"            l * : i             "
};
